<svg width="75" height="75" viewBox="0 0 75 75" fill="none" xmlns="http://www.w3.org/2000/svg">
<path d="M69.7266 8.20312H5.27344C4.186 8.20433 3.14345 8.63684 2.37452 9.40577C1.60559 10.1747 1.17308 11.2173 1.17188 12.3047V53.3203C1.17308 54.4077 1.60559 55.4503 2.37452 56.2192C3.14345 56.9882 4.186 57.4207 5.27344 57.4219H28.7373L27.3311 60.9375H21.0938C20.7829 60.9375 20.4849 61.061 20.2651 61.2807C20.0453 61.5005 19.9219 61.7986 19.9219 62.1094V64.4531H12.8906C12.5798 64.4531 12.2818 64.5766 12.062 64.7964C11.8422 65.0161 11.7188 65.3142 11.7188 65.625C11.7188 65.9358 11.8422 66.2339 12.062 66.4536C12.2818 66.6734 12.5798 66.7969 12.8906 66.7969H62.1094C62.4202 66.7969 62.7182 66.6734 62.938 66.4536C63.1578 66.2339 63.2812 65.9358 63.2812 65.625C63.2812 65.3142 63.1578 65.0161 62.938 64.7964C62.7182 64.5766 62.4202 64.4531 62.1094 64.4531H55.0781V62.1094C55.0781 61.7986 54.9547 61.5005 54.7349 61.2807C54.5151 61.061 54.2171 60.9375 53.9062 60.9375H47.6689L46.2627 57.4219H69.7266C70.814 57.4207 71.8565 56.9882 72.6255 56.2192C73.3944 55.4503 73.8269 54.4077 73.8281 53.3203V12.3047C73.8269 11.2173 73.3944 10.1747 72.6255 9.40577C71.8565 8.63684 70.814 8.20433 69.7266 8.20312ZM52.7344 63.2812V64.4531H22.2656V63.2812H52.7344ZM29.8564 60.9375L31.2627 57.4219H43.7373L45.1436 60.9375H29.8564ZM71.4844 53.3203C71.484 53.7864 71.2987 54.2333 70.9691 54.5628C70.6395 54.8924 70.1926 55.0777 69.7266 55.0781H5.27344C4.80736 55.0777 4.36047 54.8924 4.0309 54.5628C3.70133 54.2333 3.51601 53.7864 3.51562 53.3203V50.3906H71.4844V53.3203ZM71.4844 48.0469H3.51562V12.3047C3.51601 11.8386 3.70133 11.3917 4.0309 11.0622C4.36047 10.7326 4.80736 10.5473 5.27344 10.5469H69.7266C70.1926 10.5473 70.6395 10.7326 70.9691 11.0622C71.2987 11.3917 71.484 11.8386 71.4844 12.3047V48.0469Z" fill="#2A4FA7"/>
<path d="M32.1696 38.4795C32.2983 38.5639 32.4423 38.6222 32.5935 38.651C32.7447 38.6797 32.9001 38.6784 33.0507 38.6472C33.2014 38.6159 33.3445 38.5552 33.4717 38.4686C33.599 38.3821 33.7079 38.2713 33.7923 38.1426L43.0209 24.0801C43.1914 23.8203 43.2518 23.5033 43.1886 23.199C43.1255 22.8947 42.9441 22.6279 42.6842 22.4573C42.4244 22.2868 42.1075 22.2264 41.8031 22.2896C41.4988 22.3527 41.232 22.5341 41.0615 22.794L31.833 36.8565C31.7485 36.9851 31.6901 37.1292 31.6613 37.2804C31.6325 37.4316 31.6338 37.587 31.665 37.7377C31.6963 37.8884 31.757 38.0315 31.8435 38.1588C31.9301 38.2861 32.0409 38.3951 32.1696 38.4795Z" fill="#2A4FA7"/>
<path d="M44.9528 38.4005C45.1916 38.5995 45.4996 38.6954 45.8091 38.6672C46.1187 38.6391 46.4043 38.4891 46.6033 38.2504L52.4626 31.2191C52.6381 31.0085 52.7342 30.7431 52.7342 30.469C52.7342 30.1948 52.6381 29.9294 52.4626 29.7188L46.6033 22.6876C46.5051 22.5683 46.3843 22.4697 46.2478 22.3973C46.1114 22.325 45.962 22.2803 45.8082 22.2659C45.6544 22.2514 45.4993 22.2676 45.3518 22.3133C45.2043 22.359 45.0672 22.4334 44.9486 22.5323C44.8299 22.6312 44.732 22.7525 44.6604 22.8894C44.5888 23.0262 44.5449 23.1759 44.5314 23.3297C44.5178 23.4836 44.5348 23.6386 44.5814 23.7859C44.6279 23.9331 44.7031 24.0698 44.8027 24.1879L50.0369 30.469L44.8027 36.7501C44.6037 36.9888 44.5078 37.2969 44.5359 37.6064C44.5641 37.9159 44.7141 38.2015 44.9528 38.4005Z" fill="#2A4FA7"/>
<path d="M28.3966 38.2504C28.4948 38.3696 28.6155 38.4682 28.752 38.5406C28.8884 38.6129 29.0378 38.6576 29.1916 38.672C29.3454 38.6865 29.5005 38.6704 29.648 38.6246C29.7956 38.5789 29.9326 38.5045 30.0512 38.4056C30.1699 38.3067 30.2678 38.1854 30.3394 38.0485C30.411 37.9117 30.4549 37.762 30.4684 37.6082C30.482 37.4543 30.465 37.2993 30.4184 37.152C30.3719 37.0048 30.2967 36.8682 30.1971 36.7501L24.963 30.469L30.1971 24.1879C30.2967 24.0698 30.3719 23.9331 30.4184 23.7859C30.465 23.6386 30.482 23.4836 30.4684 23.3297C30.4549 23.1759 30.411 23.0262 30.3394 22.8894C30.2678 22.7525 30.1699 22.6312 30.0512 22.5323C29.9326 22.4334 29.7956 22.359 29.648 22.3133C29.5005 22.2676 29.3454 22.2514 29.1916 22.2659C29.0378 22.2803 28.8884 22.325 28.752 22.3973C28.6155 22.4697 28.4948 22.5683 28.3966 22.6876L22.5372 29.7188C22.3617 29.9294 22.2656 30.1948 22.2656 30.469C22.2656 30.7431 22.3617 31.0085 22.5372 31.2191L28.3966 38.2504Z" fill="#2A4FA7"/>
</svg>
