<svg width="75" height="75" viewBox="0 0 75 75" fill="none" xmlns="http://www.w3.org/2000/svg">
<path d="M32.8125 38.6719H42.1875V41.0156H32.8125V38.6719Z" fill="#2A4FA7"/>
<path d="M36.3281 35.1562H38.6719V44.5312H36.3281V35.1562Z" fill="#2A4FA7"/>
<path d="M66.7969 38.6719H69.1406V41.0156H66.7969V38.6719Z" fill="#2A4FA7"/>
<path d="M57.4219 38.6719H59.7656V41.0156H57.4219V38.6719Z" fill="#2A4FA7"/>
<path d="M62.1094 33.9844H64.4531V36.3281H62.1094V33.9844Z" fill="#2A4FA7"/>
<path d="M62.1094 43.3594H64.4531V45.7031H62.1094V43.3594Z" fill="#2A4FA7"/>
<path d="M10.8037 20.6543L5.53027 14.0625L10.8037 7.4707L12.6336 8.93555L8.53206 14.0625L12.6336 19.1895L10.8037 20.6543Z" fill="#2A4FA7"/>
<path d="M29.0399 20.6543L27.21 19.1895L31.3127 14.0625L27.21 8.93555L29.0399 7.4707L34.3122 14.0625L29.0399 20.6543Z" fill="#2A4FA7"/>
<path d="M14.937 17.9767L23.1424 8.604L24.906 10.1472L16.7005 19.5205L14.937 17.9767Z" fill="#2A4FA7"/>
<path d="M9.375 51.5625H4.6875V46.875H7.03125V49.2188H9.375V51.5625Z" fill="#2A4FA7"/>
<path d="M71.4844 2.34375H3.51562C1.57413 2.34375 0 3.91788 0 5.85938V52.7344C0 54.6759 1.57413 56.25 3.51562 56.25H28.125V62.1094C28.125 64.0509 26.5509 65.625 24.6094 65.625H18.75V72.6562H56.25V65.625H50.3906C48.4491 65.625 46.875 64.0509 46.875 62.1094V56.25H71.4844C73.4259 56.25 75 54.6759 75 52.7344V5.85938C75 3.91788 73.4259 2.34375 71.4844 2.34375ZM53.9062 67.9688V70.3125H21.0938V67.9688H53.9062ZM37.5 63.3305C39.4415 63.3305 41.0156 61.7563 41.0156 59.8148V56.25H44.5312V62.1094C44.5358 63.3814 44.9581 64.6168 45.7335 65.625H29.2665C30.0419 64.6168 30.4642 63.3814 30.4688 62.1094V56.25H33.9844V59.8148C33.9844 61.7563 35.5585 63.3305 37.5 63.3305ZM36.3281 59.8148V56.25H38.6719V59.8148C38.6719 60.462 38.1472 60.9867 37.5 60.9867C36.8528 60.9867 36.3281 60.462 36.3281 59.8148ZM72.6562 52.7344C72.6562 53.3815 72.1315 53.9062 71.4844 53.9062H3.51562C2.86846 53.9062 2.34375 53.3815 2.34375 52.7344V42.1875H26.0159C26.9863 46.958 30.8064 50.6304 35.6117 51.4114C40.4165 52.1931 45.2036 49.9203 47.6355 45.7031H53.1435C55.1073 49.1175 58.6596 51.313 62.5917 51.543C66.5239 51.7731 70.3074 50.0067 72.6562 46.8447V52.7344ZM63.2812 49.2188C59.7193 49.2273 56.464 47.2052 54.8927 44.0088L54.5683 43.3594H46.213L45.8885 44.0088C43.8332 48.1527 39.0627 50.1789 34.6539 48.7799C30.2444 47.3803 27.515 42.9749 28.2257 38.4035C28.9358 33.8327 32.8743 30.4636 37.5 30.4688H63.2812C68.4591 30.4688 72.6562 34.6659 72.6562 39.8438C72.6562 45.0216 68.4591 49.2188 63.2812 49.2188ZM72.6562 32.8428C70.4521 29.8777 66.976 28.1284 63.2812 28.125H37.5C31.0307 28.1319 25.7881 33.3744 25.7812 39.8438H2.34375V5.85938C2.34375 5.21221 2.86846 4.6875 3.51562 4.6875H71.4844C72.1315 4.6875 72.6562 5.21221 72.6562 5.85938V32.8428Z" fill="#2A4FA7"/>
<path d="M48.0469 38.6719H52.7344V41.0156H48.0469V38.6719Z" fill="#2A4FA7"/>
<path d="M35.1562 9.375H44.5312V11.7188H35.1562V9.375Z" fill="#2A4FA7"/>
<path d="M49.2188 9.375H67.9688V11.7188H49.2188V9.375Z" fill="#2A4FA7"/>
<path d="M51.5625 14.0625H67.9688V16.4062H51.5625V14.0625Z" fill="#2A4FA7"/>
<path d="M37.5 14.0625H46.875V16.4062H37.5V14.0625Z" fill="#2A4FA7"/>
<path d="M35.1562 18.75H58.5938V21.0938H35.1562V18.75Z" fill="#2A4FA7"/>
<path d="M63.2812 18.75H67.9688V21.0938H63.2812V18.75Z" fill="#2A4FA7"/>
<path d="M7.03125 23.4375H18.75V25.7812H7.03125V23.4375Z" fill="#2A4FA7"/>
<path d="M23.4375 23.4375H45.7031V25.7812H23.4375V23.4375Z" fill="#2A4FA7"/>
<path d="M49.2188 23.4375H67.9688V25.7812H49.2188V23.4375Z" fill="#2A4FA7"/>
<path d="M7.03125 28.125H25.7812V30.4688H7.03125V28.125Z" fill="#2A4FA7"/>
<path d="M7.03125 32.8125H16.4062V35.1562H7.03125V32.8125Z" fill="#2A4FA7"/>
<path d="M18.75 32.8125H23.4375V35.1562H18.75V32.8125Z" fill="#2A4FA7"/>
</svg>
