<svg width="75" height="75" viewBox="0 0 75 75" fill="none" xmlns="http://www.w3.org/2000/svg">
<g clip-path="url(#clip0_13_578)">
<path d="M34.8633 54.4175C34.2564 54.4175 33.7646 54.9094 33.7646 55.5161C33.7646 56.1229 34.2564 56.6147 34.8633 56.6147H40.1367C40.7436 56.6147 41.2354 56.1229 41.2354 55.5161C41.2354 54.9094 40.7436 54.4175 40.1367 54.4175H34.8633Z" fill="#2A4FA7"/>
<path d="M13.1836 37.3584H20.4457C20.8893 38.5128 22.0068 39.3359 23.3155 39.3359C24.6242 39.3359 25.7417 38.5128 26.1853 37.3584H27.6368C28.2437 37.3584 28.7354 36.8665 28.7354 36.2598C28.7354 35.653 28.2437 35.1611 27.6368 35.1611H26.1853C25.7417 34.0067 24.6242 33.1836 23.3155 33.1836C22.0068 33.1836 20.8893 34.0067 20.4457 35.1611H13.1836C12.5767 35.1611 12.085 35.653 12.085 36.2598C12.085 36.8665 12.5767 37.3584 13.1836 37.3584ZM23.3155 35.3809C23.8002 35.3809 24.1944 35.775 24.1944 36.2598C24.1944 36.7445 23.8002 37.1387 23.3155 37.1387C22.8308 37.1387 22.4366 36.7445 22.4366 36.2598C22.4366 35.775 22.8308 35.3809 23.3155 35.3809Z" fill="#2A4FA7"/>
<path d="M13.1836 31.0596H14.5863C15.0299 32.214 16.1474 33.0371 17.4561 33.0371C18.7648 33.0371 19.8823 32.214 20.3259 31.0596H27.6368C28.2437 31.0596 28.7354 30.5677 28.7354 29.9609C28.7354 29.3542 28.2437 28.8623 27.6368 28.8623H20.3259C19.8823 27.7079 18.7648 26.8848 17.4561 26.8848C16.1474 26.8848 15.0299 27.7079 14.5863 28.8623H13.1836C12.5767 28.8623 12.085 29.3542 12.085 29.9609C12.085 30.5677 12.5767 31.0596 13.1836 31.0596ZM17.4561 29.082C17.9408 29.082 18.335 29.4762 18.335 29.9609C18.335 30.4457 17.9408 30.8398 17.4561 30.8398C16.9714 30.8398 16.5772 30.4457 16.5772 29.9609C16.5772 29.4762 16.9714 29.082 17.4561 29.082Z" fill="#2A4FA7"/>
<path d="M27.8564 20.9521C28.4632 20.9521 28.9551 20.4603 28.9551 19.8535C28.9551 19.2468 28.4632 18.7549 27.8564 18.7549C27.2497 18.7549 26.7578 19.2468 26.7578 19.8535C26.7578 20.4603 27.2497 20.9521 27.8564 20.9521Z" fill="#2A4FA7"/>
<path d="M24.8291 20.9521C25.4359 20.9521 25.9277 20.4603 25.9277 19.8535C25.9277 19.2468 25.4359 18.7549 24.8291 18.7549C24.2223 18.7549 23.7305 19.2468 23.7305 19.8535C23.7305 20.4603 24.2223 20.9521 24.8291 20.9521Z" fill="#2A4FA7"/>
<path d="M21.8018 20.9521C22.4085 20.9521 22.9004 20.4603 22.9004 19.8535C22.9004 19.2468 22.4085 18.7549 21.8018 18.7549C21.195 18.7549 20.7031 19.2468 20.7031 19.8535C20.7031 20.4603 21.195 20.9521 21.8018 20.9521Z" fill="#2A4FA7"/>
<path d="M71.7041 7.39495H71.2926L71.5995 7.08806C72.5187 6.16887 72.5187 4.67312 71.5995 3.75393L69.1945 1.34895C68.2753 0.429907 66.7797 0.429907 65.8604 1.34895L59.8148 7.3948H3.2959C1.47861 7.3948 0 8.87327 0 10.6907V56.3153C0 58.5366 1.80703 60.3436 4.02832 60.3436H30.0505V68.1153H24.7559C23.3424 68.1153 22.1924 69.2654 22.1924 70.6788V71.7766C22.1924 73.19 23.3424 74.34 24.7559 74.34H50.2441C51.6576 74.34 52.8076 73.19 52.8076 71.7766V70.6788C52.8076 69.2654 51.6576 68.1153 50.2441 68.1153H44.9495V60.3436H56.6895C57.2963 60.3436 57.7881 59.8517 57.7881 59.245C57.7881 58.6382 57.2963 58.1464 56.6895 58.1464H4.02832C3.0186 58.1464 2.19727 57.325 2.19727 56.3153V53.0633H72.8027V56.3153C72.8027 57.325 71.9814 58.1464 70.9717 58.1464H61.8164C61.2095 58.1464 60.7178 58.6382 60.7178 59.245C60.7178 59.8517 61.2095 60.3436 61.8164 60.3436H70.9717C73.193 60.3436 75 58.5366 75 56.3153V10.6908C75 8.87356 73.5214 7.39495 71.7041 7.39495ZM50.2441 70.3128C50.4461 70.3128 50.6104 70.4771 50.6104 70.679V71.7767C50.6104 71.9786 50.4461 72.1429 50.2441 72.1429H24.7559C24.5539 72.1429 24.3896 71.9786 24.3896 71.7767V70.679C24.3896 70.4771 24.5539 70.3128 24.7559 70.3128H50.2441ZM32.2478 60.3439H42.7523V68.1156H32.2478V60.3439ZM67.4142 2.90286C67.4769 2.84031 67.5785 2.84045 67.6409 2.90286L70.0458 5.30769C70.1083 5.37024 70.1083 5.47205 70.0458 5.53445L67.7511 7.82912L65.1195 5.19753L67.4142 2.90286ZM63.5657 6.75129L66.1972 9.38288L65.4309 10.1491L62.7995 7.51755L63.5657 6.75129ZM61.2457 9.07131L63.8773 11.7029L50.8767 24.7035L48.2451 22.0719L61.2457 9.07131ZM59.6191 19.1156C61.1134 19.1156 62.3291 20.3313 62.3291 21.8256C62.3291 23.3198 61.1134 24.5355 59.6191 24.5355C58.1249 24.5355 56.9092 23.3198 56.9092 21.8256C56.9092 21.8081 56.9115 21.7913 56.9118 21.7738L59.5679 19.1182C59.585 19.1179 59.6019 19.1156 59.6191 19.1156ZM48.9688 25.9032L45.7173 27.2313L47.0454 23.9798L48.9688 25.9032ZM72.8027 50.8664H2.19727V10.6908C2.19727 10.0851 2.69004 9.59221 3.2959 9.59221H57.6177L55.9425 11.2674H18.6035C17.9966 11.2674 17.5049 11.7593 17.5049 12.366C17.5049 12.9728 17.9966 13.4647 18.6035 13.4647H53.7454L45.9962 21.2143C45.7772 21.4352 45.606 21.693 45.4881 21.9816L43.034 27.9898C42.8089 28.5416 42.9357 29.1704 43.3572 29.5917C43.64 29.8746 44.0162 30.0246 44.3999 30.0246C44.5879 30.0246 44.7776 29.9885 44.9591 29.9146L50.9672 27.4607C51.2476 27.3461 51.4983 27.1803 51.7151 26.9701L55.0573 23.6283C55.7773 25.4446 57.5498 26.7329 59.6193 26.7329C62.3251 26.7329 64.5265 24.5316 64.5265 21.8257C64.5265 19.7565 63.2385 17.9842 61.4225 17.264L65.2222 13.4648H68.9303V46.9941H68.348L64.3666 40.098C64.0633 39.5724 63.391 39.3924 62.8658 39.6959C62.3404 39.9993 62.1604 40.6712 62.4637 41.1966L65.8109 46.9941H50.4637L48.8177 44.143L56.4913 30.8521L59.9001 36.7566C60.2036 37.282 60.8755 37.4622 61.4008 37.1587C61.9263 36.8553 62.1063 36.1834 61.8029 35.6579L58.1662 29.359C57.8165 28.7534 57.1904 28.3919 56.4911 28.3919C55.7918 28.3919 55.1656 28.7534 54.8159 29.359L47.5488 41.9459L38.2245 25.7959C37.8749 25.1903 37.2488 24.8288 36.5493 24.8288C35.8501 24.8288 35.2239 25.1903 34.8743 25.7959L32.3971 30.0865V18.3102C32.3971 16.8968 31.247 15.7467 29.8336 15.7467H10.9863C9.5729 15.7467 8.42285 16.8968 8.42285 18.3102V42.3337C8.42285 43.3434 9.24419 44.1647 10.2539 44.1647H24.2694L22.6358 46.9942H6.06987V13.4647H13.4766C14.0834 13.4647 14.5752 12.9728 14.5752 12.366C14.5752 11.7593 14.0834 11.2674 13.4766 11.2674H5.70366C4.69395 11.2674 3.87261 12.0887 3.87261 13.0985V47.3601C3.87261 48.3698 4.69395 49.1912 5.70366 49.1912H69.2965C70.3062 49.1912 71.1275 48.3698 71.1275 47.3601V13.0985C71.1275 12.0887 70.3062 11.2674 69.2965 11.2674H67.4197L69.0952 9.59221H71.7041C72.31 9.59221 72.8027 10.0851 72.8027 10.6908V50.8664ZM30.2002 24.3946V41.9672H10.6201V24.3946H30.2002ZM10.6201 22.1973V18.3099C10.6201 18.1081 10.7843 17.9437 10.9863 17.9437H29.834C30.036 17.9437 30.2002 18.1081 30.2002 18.3099V22.1973H10.6201ZM26.8066 44.1644H30.5665C31.5762 44.1644 32.3975 43.3431 32.3975 42.3334V40.0062C32.6723 40.138 32.9783 40.2093 33.2988 40.2093C34.0488 40.2093 34.7203 39.8215 35.0952 39.1721L36.9649 35.9338C37.0214 35.8359 37.1079 35.8153 37.1701 35.8153C37.2327 35.8153 37.3191 35.8359 37.3755 35.9338L38.5282 37.9302C38.9032 38.5799 39.5748 38.9676 40.325 38.9676C41.075 38.9676 41.7466 38.5798 42.1214 37.9303L42.4077 37.4346L47.9266 46.9938H25.173L26.8066 44.1644ZM32.3975 36.3285V34.4808L36.5499 27.2888L41.139 35.2374L40.3248 36.6474L39.2783 34.835C38.8383 34.0728 38.0502 33.6178 37.17 33.6178C36.2899 33.6178 35.5018 34.0728 35.0618 34.835L33.2984 37.8892L32.3975 36.3285Z" fill="#2A4FA7"/>
</g>
<defs>
<clipPath id="clip0_13_578">
<rect width="75" height="75" fill="white"/>
</clipPath>
</defs>
</svg>
