<svg width="75" height="75" viewBox="0 0 75 75" fill="none" xmlns="http://www.w3.org/2000/svg">
<g clip-path="url(#clip0_13_604)">
<path d="M37.5001 0C29.4099 0 22.8262 6.84457 22.8262 15.256V37.5C22.8262 45.913 29.4099 52.756 37.5001 52.756C45.5903 52.756 52.174 45.913 52.174 37.5V15.256C52.174 6.84457 45.5903 0 37.5001 0ZM37.5001 49.4951C31.7349 49.4951 26.9658 44.9739 26.2044 39.1304H48.7941C48.0343 44.9755 43.2653 49.4951 37.5001 49.4951ZM48.9131 35.8696H26.087V15.256C26.087 8.6413 31.2066 3.26087 37.5001 3.26087C43.7936 3.26087 48.9131 8.6413 48.9131 15.256V35.8696Z" fill="#2A4FA7"/>
<path d="M60.3261 29.3477C59.4261 29.3477 58.6956 30.0781 58.6956 30.9781V37.4998C58.6956 49.1868 49.1869 58.6955 37.5 58.6955C25.813 58.6955 16.3043 49.1868 16.3043 37.4998V30.9781C16.3043 30.0781 15.5739 29.3477 14.6739 29.3477C13.7739 29.3477 13.0435 30.0781 13.0435 30.9781V37.4998C13.0435 50.4341 23.144 61.0286 35.8695 61.8732V71.739H27.7174C26.8174 71.739 26.0869 72.4694 26.0869 73.3694C26.0869 74.2694 26.8174 74.9998 27.7174 74.9998H47.2826C48.1826 74.9998 48.913 74.2694 48.913 73.3694C48.913 72.4694 48.1826 71.739 47.2826 71.739H39.1304V61.8732C51.856 61.0286 61.9565 50.4341 61.9565 37.4998V30.9781C61.9565 30.0781 61.2261 29.3477 60.3261 29.3477Z" fill="#2A4FA7"/>
</g>
<defs>
<clipPath id="clip0_13_604">
<rect width="75" height="75" fill="white"/>
</clipPath>
</defs>
</svg>
