<svg width="75" height="78" viewBox="0 0 75 78" fill="none" xmlns="http://www.w3.org/2000/svg">
<path d="M53.2256 72.9677H71.8389L67.0607 58.0584C65.8111 54.1597 62.6224 51.2686 58.7381 50.5113L45.9675 48.0203V44.9469C49.0268 42.6509 51.1861 39.1535 51.8127 35.1201C54.6675 34.6182 56.8546 32.0454 56.8546 28.9355V20.129C56.8546 9.03039 48.1715 0 37.4998 0C26.828 0 18.1449 9.03039 18.1449 20.129V28.9355C18.1449 32.0416 20.3211 34.6295 23.1711 35.1365C23.8002 39.1698 25.9715 42.671 29.032 44.9657V48.0216L16.2602 50.5126C12.3772 51.2699 9.18726 54.1609 7.93766 58.0597L3.16064 72.9677H21.774V70.4516H18.4848L20.528 61.9496L18.1812 61.3407L15.9905 70.4516H6.51629L10.2336 58.8548C11.205 55.8228 13.6861 53.5734 16.7066 52.9834L24.4123 51.4813L26.3828 60.7004C25.0957 61.2816 24.1933 62.6126 24.1933 64.1613V74.2258C24.1933 76.3066 25.8215 78 27.8223 78H47.1772C49.178 78 50.8062 76.3066 50.8062 74.2258V64.1613C50.8062 62.6126 49.9038 61.2816 48.6179 60.7004L50.5885 51.4813L58.2941 52.9834C61.3147 53.5734 63.7945 55.8228 64.7671 58.8548L68.4832 70.4516H59.009L56.8183 61.3407L54.4715 61.9496L56.5147 70.4516H53.2256V72.9677ZM48.209 51.017L46.5385 58.8346L45.7026 55.3548H40.4199L45.1619 50.4232L48.209 51.017ZM44.4179 60.3871H30.5816L31.1865 57.871H43.8131L44.4179 60.3871ZM37.4998 54.834L31.4514 48.5437V46.4226C33.2949 47.3057 35.3405 47.8064 37.4998 47.8064C39.6603 47.8064 41.7046 47.2995 43.5482 46.4163V48.5437L37.4998 54.834ZM52.0159 32.4782V25.394C53.4203 25.9149 54.4353 27.2987 54.4353 28.9367C54.4353 30.5747 53.4203 31.9574 52.0159 32.4782ZM22.9836 32.4945C21.5756 31.975 20.5643 30.576 20.5643 28.9355C20.5643 27.295 21.5756 25.896 22.9836 25.3764V32.4945ZM20.5643 23.9359V20.129C20.5643 10.4168 28.1611 2.51613 37.4998 2.51613C46.8385 2.51613 54.4353 10.4168 54.4353 20.129V23.9359C53.7191 23.3723 52.8917 22.9559 51.9772 22.7685C51.7873 21.2827 50.5752 20.129 49.0957 20.129C48.3276 20.129 47.5752 20.4536 46.9703 21.0826C44.9272 23.2075 42.3385 24.5625 39.5344 25.0028L39.6119 24.8417C39.8127 24.4215 39.9191 23.9523 39.9191 23.483V23.166C39.9191 21.4915 38.609 20.129 36.999 20.129C36.2308 20.129 35.4784 20.4536 34.934 21.0185C32.3852 23.668 29.0042 25.1374 25.403 25.1613V22.6452H24.1933C22.8264 22.6452 21.578 23.1371 20.5643 23.9359ZM25.403 32.7097V27.6774C29.6502 27.6535 33.6397 25.9224 36.6433 22.7986C36.9348 22.4942 37.4998 22.742 37.4998 23.166V23.483C37.4998 23.5635 37.4816 23.6441 37.4465 23.717L35.5425 27.6774H37.4998C41.724 27.6774 45.6941 25.9677 48.7401 22.7986C49.0328 22.4942 49.5965 22.742 49.5965 23.166V32.7097C49.5965 39.6466 44.1699 45.2903 37.4998 45.2903C30.8296 45.2903 25.403 39.6466 25.403 32.7097ZM29.8377 50.4232L34.5796 55.3548H29.2969L28.4611 58.8346L26.7905 51.017L29.8377 50.4232ZM27.8223 75.4839C27.1558 75.4839 26.6127 74.9203 26.6127 74.2258V64.1613C26.6127 63.4668 27.1558 62.9032 27.8223 62.9032H31.5857C30.0119 64.5035 29.032 66.7303 29.032 69.1936C29.032 71.6568 30.0119 73.8836 31.5857 75.4839H27.8223ZM37.4998 75.4839C34.1647 75.4839 31.4514 72.662 31.4514 69.1936C31.4514 65.7251 34.1647 62.9032 37.4998 62.9032C40.8348 62.9032 43.5482 65.7251 43.5482 69.1936C43.5482 72.662 40.8348 75.4839 37.4998 75.4839ZM48.3869 74.2258C48.3869 74.9203 47.8437 75.4839 47.1772 75.4839H43.4139C44.9877 73.8836 45.9675 71.6568 45.9675 69.1936C45.9675 66.7303 44.9877 64.5035 43.4139 62.9032H47.1772C47.8437 62.9032 48.3869 63.4668 48.3869 64.1613V74.2258Z" fill="#2A4FA7"/>
<path d="M37.5001 65.4194C35.4993 65.4194 33.8711 67.1128 33.8711 69.1936C33.8711 71.2745 35.4993 72.9678 37.5001 72.9678C39.5009 72.9678 41.1292 71.2745 41.1292 69.1936C41.1292 67.1128 39.5009 65.4194 37.5001 65.4194ZM37.5001 70.4517C36.8336 70.4517 36.2904 69.8881 36.2904 69.1936C36.2904 68.4992 36.8336 67.9356 37.5001 67.9356C38.1667 67.9356 38.7098 68.4992 38.7098 69.1936C38.7098 69.8881 38.1667 70.4517 37.5001 70.4517Z" fill="#2A4FA7"/>
</svg>
